# xmcd
# 
# Track frame offsets:
#     150
#     19078
#     32799
#     47290
#     64821
#     81251
#     96823
#     115052
#     132000
#     147639
#     166465
# 
# Disc length: 2680
# 
# Revision: 0
# Processed by: cddbd v1.5.2PL0 Copyright (c) Steve Scherf et al.
# Submitted via: fre:ac v1.0.17
# 
DISCID=8f0a760b
DTITLE=Sanseverino - Le Tango des gens
DYEAR=2002
DGENRE=Jazz manouche
TTITLE0=Frida
TTITLE1=Mal ô Mains
TTITLE2=Les Embouteillages
TTITLE3=Les Films De Guerre
TTITLE4=Swing Du Nul
TTITLE5=Le Tango De L'ennui
TTITLE6=André
TTITLE7=Le Tango Des Gens
TTITLE8=Rouge
TTITLE9=Maigrir
TTITLE10=Le Mer
EXTD=http://www.sonymusic.fr/sanseverino/Europe - 501708 2
EXTT0=
EXTT1=
EXTT2=
EXTT3=
EXTT4=
EXTT5=
EXTT6=
EXTT7=
EXTT8=
EXTT9=
EXTT10=
PLAYORDER=
